<?xml version="1.0" encoding="utf-8"?>
<svg version="1.1" xmlns="http://www.w3.org/2000/svg" xmlns:xlink="http://www.w3.org/1999/xlink" x="0px" y="0px"
	 width="500px" height="500px" viewBox="0 0 500 500" enable-background="new 0 0 500 500" xml:space="preserve">
<g id="Twitter" class="st0">
	<circle id="Circle_1_" class="st1" cx="250" cy="250" r="250"/>
	<path fill="white" d="M423,165.9c-9,13.1-19.8,24.3-32.5,33.5c0.1,1.9,0.2,4.7,0.2,8.4c0,17.4-2.5,34.8-7.6,52.1
		c-5.1,17.4-12.8,34-23.2,49.9c-10.4,15.9-22.7,30-37.1,42.3c-14.3,12.2-31.6,22-51.8,29.3s-41.9,10.9-64.9,10.9
		c-36.3,0-69.5-9.7-99.6-29.1c4.7,0.5,9.9,0.8,15.7,0.8c30.1,0,57-9.2,80.6-27.7c-14.1-0.3-26.6-4.6-37.8-12.9
		c-11.1-8.4-18.7-19.1-22.9-32c4.4,0.7,8.5,1,12.2,1c5.7,0,11.4-0.7,17.1-2.2c-15-3.1-27.4-10.5-37.3-22.4
		c-9.8-11.9-14.8-25.6-14.8-41.3v-0.8c9.1,5.1,18.9,7.8,29.3,8.2c-8.8-5.9-15.9-13.6-21.1-23.1s-7.8-19.8-7.8-30.9
		c0-11.8,3-22.7,8.8-32.8c16.2,19.9,35.9,35.9,59.2,47.9s48.1,18.6,74.6,20c-1.1-5.1-1.6-10-1.6-14.9c0-17.9,6.3-33.3,19-45.9
		c12.7-12.7,28-19,45.9-19c18.8,0,34.5,6.8,47.4,20.5c14.6-2.8,28.3-8,41.2-15.7c-5,15.4-14.5,27.3-28.5,35.8
		C398.2,174.6,410.6,171.3,423,165.9z"/>
</g>
</svg>
